#!OML:ASF X:\für Bonn\!DataBase\2005_08_10_Bjorn_Final\c3d\bjorn.ASF
:FULLY-SPECIFIED
:DEGREES
177
root 0.617536 19.1886 1.83911 -171.256 -1.3985 -180.159
lowerback -5.14484 1.62818 4.07934
upperback 1.76626 1.8988 -0.406383
thorax 4.87042 1.06896 -2.53279
lowerneck -2.67868 -2.66393 0.046882
upperneck 9.18054 -3.65587 -2.00695
head 3.38148 -1.98818 -0.804612
rclavicle -1.64991e-014 5.1684e-015
rhumerus 71.5441 0.961468 -78.9535
rradius 8.21475
rwrist 53.8068
rhand -11.6279 6.94963
rfingers 7.12502
rthumb 14.4156 -22.5297
lclavicle -1.64991e-014 5.1684e-015
lhumerus 76.6354 -13.3401 72.0937
lradius 6.23535
lwrist -48.5536
lhand -16.6113 -8.02294
lfingers 7.12502
lthumb 9.61044 21.7379
rfemur -17.3117 -15.4436 16.8526
rtibia 30.2777
rfoot -15.8186 17.4117
rtoes -11.0831
lfemur -16.702 15.5873 -16.4594
ltibia 30.3321
lfoot -13.441 -21.9162
ltoes -1.30474
178
root 0.625318 19.1793 1.83471 -171.529 -1.37315 -180.117
lowerback -5.14049 1.64299 4.09548
upperback 1.81063 1.91902 -0.454791
thorax 4.91835 1.08189 -2.58963
lowerneck -2.8922 -2.69634 0.0621407
upperneck 9.39987 -3.7013 -2.02343
head 3.49768 -2.01446 -0.823202
rclavicle -4.47266e-015 7.55382e-015
rhumerus 71.3461 0.910773 -79.2097
rradius 8.1618
rwrist 53.7956
rhand -11.55 6.85419
rfingers 7.12502
rthumb 14.4906 -22.6198
lclavicle -4.47266e-015 7.55382e-015
lhumerus 76.5652 -13.4187 71.9247
lradius 6.38027
lwrist -47.8278
lhand -16.2405 -8.29698
lfingers 7.12502
lthumb 9.9681 21.447
rfemur -17.0386 -15.0257 16.8427
rtibia 30.379
rfoot -16.1604 17.0467
rtoes -11.411
lfemur -16.2801 15.8175 -16.3156
ltibia 30.1542
lfoot -13.6042 -22.184
ltoes -1.81861
179
root 0.633217 19.1741 1.83129 -171.77 -1.32407 -180.094
lowerback -5.16706 1.66181 4.08095
upperback 1.85186 1.9456 -0.503561
thorax 4.97997 1.09727 -2.62827
lowerneck -3.08614 -2.72809 0.0468854
upperneck 9.63104 -3.74783 -2.0139
head 3.61594 -2.04181 -0.828116
rclavicle 4.27884e-014 -1.19271e-014
rhumerus 71.0519 0.896201 -79.4731
rradius 8.1611
rwrist 53.7235
rhand -11.5238 6.81958
rfingers 7.12502
rthumb 14.5158 -22.6526
lclavicle 4.27884e-014 -1.19271e-014
lhumerus 76.3942 -13.5234 71.7746
lradius 6.55414
lwrist -47.1455
lhand -15.9938 -8.52326
lfingers 7.12502
lthumb 10.2061 21.2092
rfemur -16.7912 -14.6169 16.8298
rtibia 30.4901
rfoot -16.55 16.6522
rtoes -11.9386
lfemur -15.9062 16.0665 -16.2039
ltibia 29.9894
lfoot -13.7524 -22.4261
ltoes -2.32442
180
root 0.640817 19.17 1.82948 -172 -1.29184 -180.093
lowerback -5.18259 1.66605 4.03219
upperback 1.88093 1.95491 -0.531828
thorax 5.01917 1.10203 -2.62854
lowerneck -3.21929 -2.75129 -0.0213177
upperneck 9.84116 -3.78135 -2.00582
head 3.71679 -2.06508 -0.822225
rclavicle 2.20899e-014 -1.59028e-015
rhumerus 70.6983 0.908933 -79.7001
rradius 8.15999
rwrist 53.647
rhand -11.5426 6.89372
rfingers 7.12502
rthumb 14.4977 -22.5798
lclavicle 2.20899e-014 -1.59028e-015
lhumerus 76.1487 -13.6353 71.6797
lradius 6.70415
lwrist -46.553
lhand -15.8444 -8.69832
lfingers 7.12502
lthumb 10.3503 21.027
rfemur -16.5691 -14.4082 16.8018
rtibia 30.5937
rfoot -16.8185 16.413
rtoes -12.4711
lfemur -15.5563 16.3024 -16.1176
ltibia 29.8349
lfoot -13.8327 -22.6839
ltoes -2.82376
181
root 0.648906 19.1672 1.82779 -172.192 -1.24576 -180.056
lowerback -5.25324 1.68759 4.02864
upperback 1.92457 1.98215 -0.575105
thorax 5.10878 1.11847 -2.66636
lowerneck -3.416 -2.78142 -0.0374641
upperneck 10.0796 -3.8273 -1.98272
head 3.83972 -2.09173 -0.823038
rclavicle -1.45361e-014 1.09332e-014
rhumerus 70.3388 0.897374 -79.9635
rradius 8.17498
rwrist 53.5799
rhand -11.5196 7.0034
rfingers 7.12502
rthumb 14.5199 -22.4685
lclavicle -1.45361e-014 1.09332e-014
lhumerus 75.9635 -13.7742 71.5459
lradius 6.75692
lwrist -46.2601
lhand -15.8287 -8.88551
lfingers 7.12502
lthumb 10.3654 20.839
rfemur -16.3938 -14.1237 16.8282
rtibia 30.6922
rfoot -17.0714 16.1129
rtoes -13.0621
lfemur -15.2671 16.5457 -16.0098
ltibia 29.6874
lfoot -13.9346 -22.8643
ltoes -3.34814
182
root 0.657662 19.1659 1.82735 -172.393 -1.19607 -180.035
lowerback -5.29697 1.70199 3.99254
upperback 1.97275 2.00227 -0.600648
thorax 5.18536 1.12974 -2.66876
lowerneck -3.58118 -2.80968 -0.0743984
upperneck 10.2859 -3.86695 -1.98743
head 3.9457 -2.11698 -0.827954
rclavicle -1.01629e-014 -5.96354e-015
rhumerus 69.9713 0.926366 -80.2057
rradius 8.20101
rwrist 53.5485
rhand -11.49 7.21929
rfingers 7.12502
rthumb 14.5485 -22.2505
lclavicle -1.01629e-014 -5.96354e-015
lhumerus 75.7478 -13.9064 71.4504
lradius 6.78137
lwrist -46.2576
lhand -15.839 -8.99184
lfingers 7.12502
lthumb 10.3554 20.7332
rfemur -16.204 -13.8297 16.8375
rtibia 30.788
rfoot -17.331 15.7985
rtoes -13.68
lfemur -14.9783 16.7854 -15.9139
ltibia 29.561
lfoot -13.997 -23.0334
ltoes -3.81111
183
root 0.665574 19.1648 1.82738 -172.534 -1.14709 -180.015
lowerback -5.41063 1.73029 3.97626
upperback 2.02106 2.03794 -0.647444
thorax 5.30484 1.15058 -2.70094
lowerneck -3.75646 -2.8411 -0.0834854
upperneck 10.4732 -3.91381 -1.96006
head 4.04741 -2.14225 -0.827375
rclavicle -6.16232e-015 1.98785e-015
rhumerus 69.6065 0.885721 -80.4526
rradius 8.24093
rwrist 53.5119
rhand -11.4352 7.47528
rfingers 7.12502
rthumb 14.6012 -21.9907
lclavicle -6.16232e-015 1.98785e-015
lhumerus 75.5756 -14.0724 71.3327
lradius 6.74576
lwrist -46.6227
lhand -15.8735 -9.091
lfingers 7.12502
lthumb 10.3222 20.6357
rfemur -16.1064 -13.6457 16.8623
rtibia 30.8955
rfoot -17.5387 15.5871
rtoes -14.3368
lfemur -14.7751 16.162 -15.8497
ltibia 29.4524
lfoot -14.1544 -22.4063
ltoes -4.01532
184
root 0.67431 19.1642 1.82769 -172.654 -1.08785 -179.996
lowerback -5.53719 1.7435 3.92281
upperback 2.06286 2.0547 -0.668335
thorax 5.42089 1.1601 -2.68691
lowerneck -3.86674 -2.86579 -0.120048
upperneck 10.603 -3.94813 -1.9496
head 4.11639 -2.16256 -0.824435
rclavicle 5.91384e-015 3.08116e-015
rhumerus 69.3151 0.920903 -80.6936
rradius 8.20546
rwrist 53.5826
rhand -11.3394 7.76306
rfingers 7.12502
rthumb 14.6935 -21.6963
lclavicle 5.91384e-015 3.08116e-015
lhumerus 75.4136 -14.1861 71.2356
lradius 6.59578
lwrist -47.3518
lhand -15.9573 -9.06097
lfingers 7.12502
lthumb 10.2413 20.6697
rfemur -16.041 -13.4186 16.8942
rtibia 31.0281
rfoot -17.7349 15.3188
rtoes -14.7915
lfemur -14.602 15.5384 -15.7978
ltibia 29.3548
lfoot -14.3447 -21.721
ltoes -4.44105
185
root 0.682897 19.1634 1.82821 -172.737 -1.02695 -179.974
lowerback -5.70503 1.7726 3.86967
upperback 2.10996 2.09123 -0.690387
thorax 5.56777 1.17996 -2.67087
lowerneck -3.88235 -2.90263 -0.133964
upperneck 10.5953 -3.99593 -1.9448
head 4.11662 -2.18595 -0.822801
rclavicle -2.64384e-014 1.47101e-014
rhumerus 69.0908 0.919516 -80.9202
rradius 8.13292
rwrist 53.6488
rhand -11.2404 8.0453
rfingers 7.12502
rthumb 14.7889 -21.407
lclavicle -2.64384e-014 1.47101e-014
lhumerus 75.3284 -14.3384 71.1508
lradius 6.35367
lwrist -48.2786
lhand -16.0336 -9.07105
lfingers 7.12502
lthumb 10.1677 20.6633
rfemur -16.0299 -13.1988 16.9358
rtibia 31.19
rfoot -17.9346 15.0623
rtoes -15.3661
lfemur -14.4795 14.9561 -15.758
ltibia 29.2735
lfoot -14.4365 -21.0839
ltoes -4.4702
186
root 0.691229 19.1649 1.82921 -172.817 -0.967389 -179.957
lowerback -5.8715 1.80088 3.81431
upperback 2.16793 2.12686 -0.712464
thorax 5.72526 1.19945 -2.65342
lowerneck -3.86084 -2.94352 -0.150824
upperneck 10.5223 -4.04808 -1.92564
head 4.08638 -2.20941 -0.813777
rclavicle 1.07344e-014 2.38542e-015
rhumerus 68.9197 0.911521 -81.1415
rradius 8.02168
rwrist 53.8234
rhand -11.2077 8.26134
rfingers 7.12502
rthumb 14.8204 -21.1887
lclavicle 1.07344e-014 2.38542e-015
lhumerus 75.2954 -14.4721 71.0595
lradius 6.05189
lwrist -49.317
lhand -16.0819 -9.00641
lfingers 7.12502
lthumb 10.1211 20.7302
rfemur -16.0387 -12.9567 16.9708
rtibia 31.3706
rfoot -18.1411 14.7657
rtoes -15.8788
lfemur -14.3173 14.3582 -15.7341
ltibia 29.219
lfoot -14.7778 -20.2792
ltoes -5.34753
